<svg height="273" preserveAspectRatio="xMidYMid meet" version="1.0"
     viewBox="0 0 416.25 204.749995" width="555" xmlns="http://www.w3.org/2000/svg" zoomAndPan="magnify">
  <defs>
    <g/>
  </defs>
  <g fill="#f8f9fa" fill-opacity="1">
    <g transform="translate(66.419691, 145.628773)">
      <g/>
    </g>
  </g>
  <g fill="#f8f9fa" fill-opacity="1">
    <g transform="translate(106.72321, 145.628773)">
      <g>
        <path d="M 8.109375 0 L 8.109375 -87.765625 L 32.203125 -87.765625 L 32.203125 0 Z M 8.109375 0 "/>
      </g>
    </g>
  </g>
  <g fill="#f8f9fa" fill-opacity="1">
    <g transform="translate(147.025114, 145.628773)">
      <g>
        <path
          d="M 40.3125 -65.359375 C 51.53125 -65.359375 60.34375 -62.515625 66.75 -56.828125 C 73.164062 -51.140625 76.375 -42.847656 76.375 -31.953125 C 76.375 -21.054688 73.164062 -12.765625 66.75 -7.078125 C 60.34375 -1.390625 51.53125 1.453125 40.3125 1.453125 C 29.09375 1.453125 20.296875 -1.367188 13.921875 -7.015625 C 7.546875 -12.671875 4.359375 -20.984375 4.359375 -31.953125 C 4.359375 -42.929688 7.546875 -51.242188 13.921875 -56.890625 C 20.296875 -62.535156 29.09375 -65.359375 40.3125 -65.359375 Z M 40.3125 -49.03125 C 32.40625 -49.03125 28.453125 -44.46875 28.453125 -35.34375 L 28.453125 -28.453125 C 28.453125 -19.410156 32.40625 -14.890625 40.3125 -14.890625 C 48.300781 -14.890625 52.296875 -19.410156 52.296875 -28.453125 L 52.296875 -35.34375 C 52.296875 -44.46875 48.300781 -49.03125 40.3125 -49.03125 Z M 40.3125 -49.03125 "/>
      </g>
    </g>
  </g>
  <g fill="#f8f9fa" fill-opacity="1">
    <g transform="translate(227.749975, 145.628773)">
      <g>
        <path
          d="M 40.3125 -65.359375 C 50.800781 -65.359375 59.289062 -63.117188 65.78125 -58.640625 C 72.28125 -54.160156 75.53125 -47.320312 75.53125 -38.125 L 52.171875 -38.125 C 52.171875 -45.394531 48.21875 -49.03125 40.3125 -49.03125 C 32.40625 -49.03125 28.453125 -44.46875 28.453125 -35.34375 L 28.453125 -28.453125 C 28.453125 -19.410156 32.566406 -14.890625 40.796875 -14.890625 C 49.023438 -14.890625 53.140625 -18.601562 53.140625 -26.03125 L 75.53125 -26.03125 C 75.53125 -16.75 72.28125 -9.847656 65.78125 -5.328125 C 59.289062 -0.804688 50.800781 1.453125 40.3125 1.453125 C 29.09375 1.453125 20.296875 -1.367188 13.921875 -7.015625 C 7.546875 -12.671875 4.359375 -20.984375 4.359375 -31.953125 C 4.359375 -42.929688 7.546875 -51.242188 13.921875 -56.890625 C 20.296875 -62.535156 29.09375 -65.359375 40.3125 -65.359375 Z M 40.3125 -65.359375 "/>
      </g>
    </g>
  </g>
  <g fill="#f8f9fa" fill-opacity="1">
    <g transform="translate(308.474836, 145.628773)">
      <g>
        <path
          d="M 51.8125 -63.90625 L 79.890625 -63.90625 L 56.28125 -38.125 L 80.5 0 L 53.140625 0 L 39.703125 -21.90625 L 31.34375 -13.796875 L 31.34375 0 L 7.265625 0 L 7.265625 -87.875 L 31.34375 -87.875 L 31.34375 -39.46875 Z M 51.8125 -63.90625 "/>
      </g>
    </g>
  </g>
  <g fill="#f8f9fa" fill-opacity="1">
    <g transform="translate(146.708994, 58.174177)">
      <g>
        <path d="M -8.109375 0 L -8.109375 87.765625 L -32.203125 87.765625 L -32.203125 0 Z M -8.109375 0 "/>
      </g>
    </g>
  </g>
  <g fill="#f8f9fa" fill-opacity="1">
    <g transform="translate(106.40709, 58.174177)">
      <g>
        <path
          d="M -51.8125 63.90625 L -79.890625 63.90625 L -56.28125 38.125 L -80.5 0 L -53.140625 0 L -39.703125 21.90625 L -31.34375 13.796875 L -31.34375 0 L -7.265625 0 L -7.265625 87.875 L -31.34375 87.875 L -31.34375 39.46875 Z M -51.8125 63.90625 "/>
      </g>
    </g>
  </g>
</svg>
